<svg width="78" height="78" viewBox="0 0 78 78" fill="none" xmlns="http://www.w3.org/2000/svg">
<rect width="78" height="78" rx="10" fill="#3071B5"/>
<path d="M42.0014 23.7442C42.0001 23.668 41.9167 23.6178 41.8507 23.656C35.6515 27.2505 35.9241 36.6169 35.9912 37.8912C35.9949 37.9622 35.9275 38.0099 35.8622 37.9819C35.2826 37.7332 33.0697 36.5469 33.0016 32.9049C33.0002 32.8285 32.9178 32.7781 32.8517 32.8164C29.3541 34.8401 27 38.6393 27 42.857C27 49.2477 32.3726 54.4284 39 54.4284C45.6274 54.4284 51 49.2477 51 42.857C50.9999 33.5237 42.1306 31.5551 42.0014 23.7442Z" stroke="white" stroke-width="2"/>
</svg>
