<svg width="78" height="78" viewBox="0 0 78 78" fill="none" xmlns="http://www.w3.org/2000/svg">
<rect width="78" height="78" rx="10" fill="#3A3A3A"/>
<path d="M25.0354 51.1881L24.0926 50.8549L24.0926 50.8549L25.0354 51.1881ZM26.5667 52.7193L26.8999 53.6622H26.8999L26.5667 52.7193ZM31.2263 51.0728L31.5594 52.0157L31.2263 51.0728ZM32.0899 51.1584L32.5868 50.2905L32.0899 51.1584ZM26.662 45.5555L25.7787 46.0244L26.662 45.5555ZM26.7309 46.39L25.788 46.0568L26.7309 46.39ZM26.0355 39C26.0355 31.8203 31.8558 26 39.0355 26V24C30.7512 24 24.0355 30.7157 24.0355 39H26.0355ZM27.5452 45.0865C26.5817 43.2717 26.0355 41.2011 26.0355 39H24.0355C24.0355 41.536 24.6656 43.9278 25.7787 46.0244L27.5452 45.0865ZM25.9783 51.5213L27.6738 46.7231L25.788 46.0568L24.0926 50.8549L25.9783 51.5213ZM26.2335 51.7765C26.075 51.8325 25.9223 51.6798 25.9783 51.5213L24.0926 50.8549C23.4764 52.5987 25.1561 54.2784 26.8999 53.6622L26.2335 51.7765ZM30.8931 50.13L26.2335 51.7765L26.8999 53.6622L31.5594 52.0157L30.8931 50.13ZM39.0355 52C36.6868 52 34.4864 51.378 32.5868 50.2905L31.5931 52.0262C33.7872 53.2823 36.3291 54 39.0355 54V52ZM52.0355 39C52.0355 46.1797 46.2152 52 39.0355 52V54C47.3198 54 54.0355 47.2843 54.0355 39H52.0355ZM39.0355 26C46.2152 26 52.0355 31.8203 52.0355 39H54.0355C54.0355 30.7157 47.3198 24 39.0355 24V26ZM31.5594 52.0157C31.5574 52.0164 31.5583 52.0154 31.5641 52.016C31.5705 52.0167 31.5809 52.0192 31.5931 52.0262L32.5868 50.2905C32.0874 50.0046 31.4703 49.926 30.8931 50.13L31.5594 52.0157ZM25.7787 46.0244C25.7851 46.0363 25.7873 46.0463 25.7878 46.0523C25.7883 46.0579 25.7873 46.0588 25.788 46.0568L27.6738 46.7231C27.8699 46.1682 27.8048 45.5754 27.5452 45.0865L25.7787 46.0244Z" fill="white"/>
<circle cx="32.1055" cy="39.0698" r="1.75" fill="white"/>
<circle cx="39.1055" cy="39.0698" r="1.75" fill="white"/>
<circle cx="46.1055" cy="39.0698" r="1.75" fill="white"/>
</svg>
