<svg width="78" height="78" viewBox="0 0 78 78" fill="none" xmlns="http://www.w3.org/2000/svg">
<rect width="78" height="78" rx="10" fill="#3A3A3A"/>
<circle cx="6.52165" cy="6.52165" r="6.52165" transform="matrix(-1 0 0 1 45.9292 24.7334)" stroke="white" stroke-width="2"/>
<path d="M27.9947 47.4532C27.9947 46.0505 28.8765 44.7992 30.1975 44.3274V44.3274C36.1534 42.2003 42.6618 42.2003 48.6176 44.3274V44.3274C49.9387 44.7992 50.8205 46.0505 50.8205 47.4532V50.9602C50.8205 52.1773 49.7425 53.1122 48.5376 52.9401L43.226 52.1813C40.6932 51.8194 38.1219 51.8194 35.5892 52.1813L30.2776 52.9401C29.0727 53.1122 27.9947 52.1773 27.9947 50.9602V47.4532Z" stroke="white" stroke-width="2"/>
<path d="M49.1901 37.9573C52.0201 37.9573 54.3143 35.6631 54.3143 32.8331C54.3143 30.0031 52.0201 27.709 49.1901 27.709" stroke="white" stroke-width="2" stroke-linecap="round"/>
<path d="M54.8022 49.6472L55.3042 49.7189C56.8101 49.934 58.1574 48.7655 58.1574 47.2444V45.5591C58.1574 44.457 57.4645 43.4738 56.4266 43.1031C55.3912 42.7334 54.3346 42.4454 53.2661 42.2393" stroke="white" stroke-width="2" stroke-linecap="round"/>
<path d="M28.8099 37.9573C25.9799 37.9573 23.6858 35.6631 23.6858 32.8331C23.6858 30.0031 25.9799 27.709 28.8099 27.709" stroke="white" stroke-width="2" stroke-linecap="round"/>
<path d="M23.1978 49.6472L22.6958 49.7189C21.1899 49.934 19.8426 48.7655 19.8426 47.2444V45.5591C19.8426 44.457 20.5355 43.4738 21.5734 43.1031C22.6088 42.7334 23.6654 42.4454 24.7339 42.2393" stroke="white" stroke-width="2" stroke-linecap="round"/>
<circle cx="62" cy="16" r="6" fill="#3A3A3A"/>
</svg>
